<svg xmlns="http://www.w3.org/2000/svg" viewBox="0 0 900 700" role="img" aria-labelledby="title description">
  <title id="title">Parcours numérique FPK-EXPRESS</title>
  <desc id="description">Illustration abstraite d’un téléphone, d’une commande et d’un snack partenaire reliés par la plateforme.</desc>
  <defs>
    <linearGradient id="panel" x1="0" y1="0" x2="1" y2="1">
      <stop offset="0" stop-color="#18344f"/>
      <stop offset="1" stop-color="#0a1b2c"/>
    </linearGradient>
    <linearGradient id="teal" x1="0" y1="0" x2="1" y2="1">
      <stop offset="0" stop-color="#54d0c5"/>
      <stop offset="1" stop-color="#0e8b83"/>
    </linearGradient>
    <filter id="shadow" x="-30%" y="-30%" width="160%" height="160%">
      <feDropShadow dx="0" dy="18" stdDeviation="18" flood-color="#000" flood-opacity=".26"/>
    </filter>
  </defs>

  <g opacity=".18" stroke="#8de0d6" fill="none">
    <path d="M80 115h660M145 55v565M510 75v570M790 130v410"/>
    <path d="M80 565h690M115 350h700"/>
  </g>

  <g fill="none" stroke="#54d0c5" stroke-width="3" stroke-linecap="round" stroke-dasharray="8 12" opacity=".7">
    <path d="M250 315C360 250 430 255 520 305"/>
    <path d="M575 335c75 20 110 55 130 115"/>
    <path d="M270 365c100 105 255 145 405 105"/>
  </g>

  <g filter="url(#shadow)">
    <rect x="90" y="135" width="205" height="390" rx="28" fill="url(#panel)" stroke="#4a7388" stroke-width="2"/>
    <rect x="108" y="168" width="169" height="320" rx="16" fill="#f7f3ea"/>
    <rect x="150" y="150" width="86" height="7" rx="3.5" fill="#4a7388"/>
    <rect x="126" y="190" width="72" height="9" rx="4" fill="#0e8b83"/>
    <rect x="126" y="217" width="132" height="78" rx="9" fill="#dff4ef"/>
    <circle cx="158" cy="256" r="20" fill="#14a098"/>
    <path d="M151 256h14m-7-7v14" stroke="#fff" stroke-width="3" stroke-linecap="round"/>
    <rect x="188" y="239" width="52" height="7" rx="3.5" fill="#28506b"/>
    <rect x="188" y="254" width="40" height="6" rx="3" fill="#91a4ad"/>
    <rect x="188" y="269" width="33" height="6" rx="3" fill="#c99b3f"/>
    <rect x="126" y="314" width="132" height="52" rx="8" fill="#fff" stroke="#d9d4c9"/>
    <rect x="138" y="328" width="66" height="6" rx="3" fill="#28506b"/>
    <rect x="138" y="344" width="43" height="5" rx="2.5" fill="#91a4ad"/>
    <circle cx="236" cy="340" r="11" fill="#f7ecd1"/>
    <path d="m230 340 4 4 8-9" fill="none" stroke="#ad7a25" stroke-width="2.5" stroke-linecap="round"/>
    <rect x="126" y="382" width="132" height="52" rx="8" fill="#fff" stroke="#d9d4c9"/>
    <rect x="138" y="396" width="58" height="6" rx="3" fill="#28506b"/>
    <rect x="138" y="412" width="48" height="5" rx="2.5" fill="#91a4ad"/>
    <rect x="126" y="449" width="132" height="24" rx="7" fill="url(#teal)"/>
  </g>

  <g filter="url(#shadow)">
    <rect x="390" y="190" width="250" height="185" rx="14" fill="url(#panel)" stroke="#4a7388" stroke-width="2"/>
    <rect x="412" y="212" width="206" height="33" rx="7" fill="#203f57"/>
    <circle cx="430" cy="228.5" r="6" fill="#54d0c5"/>
    <rect x="445" y="224" width="67" height="8" rx="4" fill="#b8cbd2"/>
    <rect x="412" y="263" width="95" height="88" rx="8" fill="#f7f3ea"/>
    <rect x="521" y="263" width="97" height="40" rx="8" fill="#dff4ef"/>
    <rect x="521" y="311" width="97" height="40" rx="8" fill="#f7ecd1"/>
    <path d="M430 330v-25m17 25v-42m17 42v-14m17 14v-31" stroke="#0e8b83" stroke-width="8" stroke-linecap="round"/>
    <circle cx="546" cy="283" r="8" fill="#14a098"/>
    <path d="m542 283 3 3 6-7" fill="none" stroke="#fff" stroke-width="2" stroke-linecap="round"/>
    <circle cx="546" cy="331" r="8" fill="#c99b3f"/>
    <path d="M542 331h8" stroke="#fff" stroke-width="2" stroke-linecap="round"/>
  </g>

  <g filter="url(#shadow)">
    <path d="M645 428h170v129H645z" fill="url(#panel)" stroke="#4a7388" stroke-width="2"/>
    <path d="M626 428h208l-22-66H648l-22 66Z" fill="#f7f3ea"/>
    <path d="M648 362h164l8 24H640l8-24Z" fill="#14a098"/>
    <path d="M640 386h180l7 21c-11 18-30 18-42 0-12 18-31 18-43 0-12 18-31 18-43 0-12 18-31 18-43 0-12 18-31 18-42 0l7-21Z" fill="#f7f3ea" stroke="#d8d1c3"/>
    <rect x="672" y="456" width="54" height="101" rx="4" fill="#203f57"/>
    <rect x="742" y="456" width="46" height="53" rx="4" fill="#dff4ef"/>
    <path d="M754 481h22m-11-11v22" stroke="#0e8b83" stroke-width="3" stroke-linecap="round"/>
  </g>

  <g filter="url(#shadow)">
    <circle cx="347" cy="448" r="58" fill="#10223a" stroke="#54d0c5" stroke-width="3"/>
    <path d="M324 430h46l-4 39h-38l-4-39Z" fill="#dff4ef"/>
    <path d="M334 430v-8a13 13 0 0 1 26 0v8" fill="none" stroke="#54d0c5" stroke-width="5" stroke-linecap="round"/>
    <path d="m336 449 8 8 16-18" fill="none" stroke="#0e8b83" stroke-width="4" stroke-linecap="round" stroke-linejoin="round"/>
  </g>

  <g fill="#c99b3f">
    <circle cx="342" cy="273" r="7"/><circle cx="663" cy="348" r="7"/><circle cx="563" cy="460" r="6"/>
  </g>
</svg>
